<svg xmlns="http://www.w3.org/2000/svg" width="19" height="18" viewBox="0 0 19 18" fill="none"><path d="M9.11321 14.699C9.35117 14.5558 9.64879 14.5558 9.88675 14.699L13.8494 17.0842C14.4176 17.4262 15.1175 16.9165 14.9665 16.2708L13.9164 11.7817C13.8528 11.5101 13.9453 11.2257 14.1563 11.0433L17.6518 8.02361C18.1543 7.58952 17.8864 6.76472 17.2248 6.70874L12.6198 6.31913C12.3428 6.2957 12.1015 6.12099 11.9927 5.86516L10.1902 1.62407C9.93146 1.01522 9.06851 1.01522 8.80974 1.62407L7.00724 5.86516C6.89851 6.12099 6.6572 6.2957 6.38022 6.31913L1.77525 6.70874C1.11359 6.76472 0.84569 7.58952 1.34818 8.02361L4.84366 11.0433C5.05474 11.2257 5.14718 11.5101 5.08365 11.7817L4.03352 16.2707C3.88245 16.9165 4.58235 17.4262 5.15057 17.0842L9.11321 14.699Z" fill="#FFAB02" stroke="#FFAB02"></path></svg>